<mxfile host="app.diagrams.net" modified="2020-07-31T08:09:42.997Z" agent="5.0 (Windows NT 10.0; WOW64) AppleWebKit/537.36 (KHTML, like Gecko) Chrome/79.0.3945.88 Safari/537.36" etag="QU0kMaU-2ShCaGG2qNUC" version="13.5.7" type="github">
  <diagram name="Page-1" id="e3a06f82-3646-2815-327d-82caf3d4e204">
    <mxGraphModel dx="1483" dy="781" grid="1" gridSize="10" guides="1" tooltips="1" connect="1" arrows="1" fold="1" page="1" pageScale="1.5" pageWidth="1169" pageHeight="826" background="none" math="0" shadow="0">
      <root>
        <mxCell id="0" style=";html=1;" />
        <mxCell id="1" style=";html=1;" parent="0" />
        <mxCell id="1VLkWHA8B-hFSgV8j78G-37" value="" style="endArrow=none;dashed=1;html=1;dashPattern=1 3;strokeWidth=2;" edge="1" parent="1">
          <mxGeometry width="50" height="50" relative="1" as="geometry">
            <mxPoint x="417.29" y="340" as="sourcePoint" />
            <mxPoint x="417.29" y="260" as="targetPoint" />
            <Array as="points">
              <mxPoint x="417.29" y="300" />
            </Array>
          </mxGeometry>
        </mxCell>
        <mxCell id="1VLkWHA8B-hFSgV8j78G-38" value="&lt;font style=&quot;font-size: 20px&quot;&gt;Transfer sampling online service &lt;br&gt;resource information&lt;/font&gt;" style="text;html=1;resizable=0;autosize=1;align=center;verticalAlign=middle;points=[];fillColor=none;strokeColor=none;rounded=0;shadow=0;rotation=0;" vertex="1" parent="1">
          <mxGeometry x="448" y="580" width="300" height="40" as="geometry" />
        </mxCell>
        <mxCell id="1VLkWHA8B-hFSgV8j78G-39" value="" style="group" vertex="1" connectable="0" parent="1">
          <mxGeometry x="760" y="190" width="590" height="270" as="geometry" />
        </mxCell>
        <mxCell id="1VLkWHA8B-hFSgV8j78G-14" value="" style="rounded=1;whiteSpace=wrap;html=1;" vertex="1" parent="1VLkWHA8B-hFSgV8j78G-39">
          <mxGeometry width="590" height="240" as="geometry" />
        </mxCell>
        <mxCell id="1VLkWHA8B-hFSgV8j78G-33" value="&lt;font style=&quot;font-size: 20px&quot;&gt;The scheduler&lt;/font&gt;" style="text;html=1;resizable=0;autosize=1;align=center;verticalAlign=middle;points=[];fillColor=none;strokeColor=none;rounded=0;shadow=0;" vertex="1" parent="1VLkWHA8B-hFSgV8j78G-39">
          <mxGeometry x="225" y="250" width="140" height="20" as="geometry" />
        </mxCell>
        <mxCell id="1VLkWHA8B-hFSgV8j78G-40" value="&lt;font style=&quot;font-size: 20px&quot;&gt;Compressive&lt;br&gt;Sensing&lt;/font&gt;" style="shape=cube;whiteSpace=wrap;html=1;boundedLbl=1;backgroundOutline=1;darkOpacity=0.05;darkOpacity2=0.1;shadow=0;" vertex="1" parent="1VLkWHA8B-hFSgV8j78G-39">
          <mxGeometry x="20" y="50" width="170" height="140" as="geometry" />
        </mxCell>
        <mxCell id="1VLkWHA8B-hFSgV8j78G-46" value="&lt;span style=&quot;font-size: 20px&quot;&gt;LSTM&lt;/span&gt;" style="shape=cube;whiteSpace=wrap;html=1;boundedLbl=1;backgroundOutline=1;darkOpacity=0.05;darkOpacity2=0.1;shadow=0;" vertex="1" parent="1VLkWHA8B-hFSgV8j78G-39">
          <mxGeometry x="210" y="50" width="170" height="140" as="geometry" />
        </mxCell>
        <mxCell id="1VLkWHA8B-hFSgV8j78G-47" value="&lt;span style=&quot;font-size: 20px&quot;&gt;Online &lt;br&gt;Learning&lt;/span&gt;" style="shape=cube;whiteSpace=wrap;html=1;boundedLbl=1;backgroundOutline=1;darkOpacity=0.05;darkOpacity2=0.1;shadow=0;" vertex="1" parent="1VLkWHA8B-hFSgV8j78G-39">
          <mxGeometry x="400" y="50" width="170" height="140" as="geometry" />
        </mxCell>
        <mxCell id="1VLkWHA8B-hFSgV8j78G-49" value="" style="group" vertex="1" connectable="0" parent="1">
          <mxGeometry x="393" y="60" width="60" height="82" as="geometry" />
        </mxCell>
        <mxCell id="1VLkWHA8B-hFSgV8j78G-23" value="" style="group" vertex="1" connectable="0" parent="1VLkWHA8B-hFSgV8j78G-49">
          <mxGeometry width="60" height="82" as="geometry" />
        </mxCell>
        <mxCell id="1VLkWHA8B-hFSgV8j78G-8" value="" style="shape=mxgraph.cisco.servers.standard_host;html=1;pointerEvents=1;dashed=0;fillColor=#036897;strokeColor=#ffffff;strokeWidth=2;verticalLabelPosition=bottom;verticalAlign=top;align=center;outlineConnect=0;shadow=0;" vertex="1" parent="1VLkWHA8B-hFSgV8j78G-23">
          <mxGeometry x="7" width="43" height="62" as="geometry" />
        </mxCell>
        <mxCell id="1VLkWHA8B-hFSgV8j78G-18" value="&lt;font style=&quot;font-size: 20px&quot;&gt;Server&lt;/font&gt;" style="text;html=1;resizable=0;autosize=1;align=center;verticalAlign=middle;points=[];fillColor=none;strokeColor=none;rounded=0;shadow=0;" vertex="1" parent="1VLkWHA8B-hFSgV8j78G-23">
          <mxGeometry x="-10" y="62" width="70" height="20" as="geometry" />
        </mxCell>
        <mxCell id="1VLkWHA8B-hFSgV8j78G-19" value="" style="shape=mxgraph.cisco.servers.standard_host;html=1;pointerEvents=1;dashed=0;fillColor=#036897;strokeColor=#ffffff;strokeWidth=2;verticalLabelPosition=bottom;verticalAlign=top;align=center;outlineConnect=0;shadow=0;" vertex="1" parent="1VLkWHA8B-hFSgV8j78G-23">
          <mxGeometry x="-5" y="-20" width="60" height="82" as="geometry" />
        </mxCell>
        <mxCell id="1VLkWHA8B-hFSgV8j78G-50" value="" style="group" vertex="1" connectable="0" parent="1">
          <mxGeometry x="393" y="170" width="60" height="82" as="geometry" />
        </mxCell>
        <mxCell id="1VLkWHA8B-hFSgV8j78G-51" value="" style="group" vertex="1" connectable="0" parent="1VLkWHA8B-hFSgV8j78G-50">
          <mxGeometry width="60" height="82" as="geometry" />
        </mxCell>
        <mxCell id="1VLkWHA8B-hFSgV8j78G-52" value="" style="shape=mxgraph.cisco.servers.standard_host;html=1;pointerEvents=1;dashed=0;fillColor=#036897;strokeColor=#ffffff;strokeWidth=2;verticalLabelPosition=bottom;verticalAlign=top;align=center;outlineConnect=0;shadow=0;" vertex="1" parent="1VLkWHA8B-hFSgV8j78G-51">
          <mxGeometry x="7" width="43" height="62" as="geometry" />
        </mxCell>
        <mxCell id="1VLkWHA8B-hFSgV8j78G-53" value="&lt;font style=&quot;font-size: 20px&quot;&gt;Server&lt;/font&gt;" style="text;html=1;resizable=0;autosize=1;align=center;verticalAlign=middle;points=[];fillColor=none;strokeColor=none;rounded=0;shadow=0;" vertex="1" parent="1VLkWHA8B-hFSgV8j78G-51">
          <mxGeometry x="-10" y="62" width="70" height="20" as="geometry" />
        </mxCell>
        <mxCell id="1VLkWHA8B-hFSgV8j78G-54" value="" style="shape=mxgraph.cisco.servers.standard_host;html=1;pointerEvents=1;dashed=0;fillColor=#036897;strokeColor=#ffffff;strokeWidth=2;verticalLabelPosition=bottom;verticalAlign=top;align=center;outlineConnect=0;shadow=0;" vertex="1" parent="1VLkWHA8B-hFSgV8j78G-51">
          <mxGeometry x="-5" y="-20" width="60" height="82" as="geometry" />
        </mxCell>
        <mxCell id="1VLkWHA8B-hFSgV8j78G-55" value="" style="group" vertex="1" connectable="0" parent="1">
          <mxGeometry x="388" y="480" width="60" height="82" as="geometry" />
        </mxCell>
        <mxCell id="1VLkWHA8B-hFSgV8j78G-56" value="" style="group" vertex="1" connectable="0" parent="1VLkWHA8B-hFSgV8j78G-55">
          <mxGeometry width="60" height="82" as="geometry" />
        </mxCell>
        <mxCell id="1VLkWHA8B-hFSgV8j78G-57" value="" style="shape=mxgraph.cisco.servers.standard_host;html=1;pointerEvents=1;dashed=0;fillColor=#036897;strokeColor=#ffffff;strokeWidth=2;verticalLabelPosition=bottom;verticalAlign=top;align=center;outlineConnect=0;shadow=0;" vertex="1" parent="1VLkWHA8B-hFSgV8j78G-56">
          <mxGeometry x="7" width="43" height="62" as="geometry" />
        </mxCell>
        <mxCell id="1VLkWHA8B-hFSgV8j78G-58" value="&lt;font style=&quot;font-size: 20px&quot;&gt;Server&lt;/font&gt;" style="text;html=1;resizable=0;autosize=1;align=center;verticalAlign=middle;points=[];fillColor=none;strokeColor=none;rounded=0;shadow=0;" vertex="1" parent="1VLkWHA8B-hFSgV8j78G-56">
          <mxGeometry x="-10" y="62" width="70" height="20" as="geometry" />
        </mxCell>
        <mxCell id="1VLkWHA8B-hFSgV8j78G-59" value="" style="shape=mxgraph.cisco.servers.standard_host;html=1;pointerEvents=1;dashed=0;fillColor=#036897;strokeColor=#ffffff;strokeWidth=2;verticalLabelPosition=bottom;verticalAlign=top;align=center;outlineConnect=0;shadow=0;" vertex="1" parent="1VLkWHA8B-hFSgV8j78G-56">
          <mxGeometry x="-5" y="-20" width="60" height="82" as="geometry" />
        </mxCell>
        <mxCell id="1VLkWHA8B-hFSgV8j78G-60" value="" style="group" vertex="1" connectable="0" parent="1">
          <mxGeometry x="388" y="370" width="60" height="82" as="geometry" />
        </mxCell>
        <mxCell id="1VLkWHA8B-hFSgV8j78G-61" value="" style="group" vertex="1" connectable="0" parent="1VLkWHA8B-hFSgV8j78G-60">
          <mxGeometry width="60" height="82" as="geometry" />
        </mxCell>
        <mxCell id="1VLkWHA8B-hFSgV8j78G-62" value="" style="shape=mxgraph.cisco.servers.standard_host;html=1;pointerEvents=1;dashed=0;fillColor=#036897;strokeColor=#ffffff;strokeWidth=2;verticalLabelPosition=bottom;verticalAlign=top;align=center;outlineConnect=0;shadow=0;" vertex="1" parent="1VLkWHA8B-hFSgV8j78G-61">
          <mxGeometry x="7" width="43" height="62" as="geometry" />
        </mxCell>
        <mxCell id="1VLkWHA8B-hFSgV8j78G-63" value="&lt;font style=&quot;font-size: 20px&quot;&gt;Server&lt;/font&gt;" style="text;html=1;resizable=0;autosize=1;align=center;verticalAlign=middle;points=[];fillColor=none;strokeColor=none;rounded=0;shadow=0;" vertex="1" parent="1VLkWHA8B-hFSgV8j78G-61">
          <mxGeometry x="-10" y="62" width="70" height="20" as="geometry" />
        </mxCell>
        <mxCell id="1VLkWHA8B-hFSgV8j78G-64" value="" style="shape=mxgraph.cisco.servers.standard_host;html=1;pointerEvents=1;dashed=0;fillColor=#036897;strokeColor=#ffffff;strokeWidth=2;verticalLabelPosition=bottom;verticalAlign=top;align=center;outlineConnect=0;shadow=0;" vertex="1" parent="1VLkWHA8B-hFSgV8j78G-61">
          <mxGeometry x="-5" y="-20" width="60" height="82" as="geometry" />
        </mxCell>
        <mxCell id="1VLkWHA8B-hFSgV8j78G-66" value="" style="shape=flexArrow;endArrow=classic;html=1;" edge="1" parent="1">
          <mxGeometry width="50" height="50" relative="1" as="geometry">
            <mxPoint x="480" y="100" as="sourcePoint" />
            <mxPoint x="730" y="210" as="targetPoint" />
          </mxGeometry>
        </mxCell>
        <mxCell id="1VLkWHA8B-hFSgV8j78G-67" value="" style="shape=flexArrow;endArrow=classic;html=1;" edge="1" parent="1">
          <mxGeometry width="50" height="50" relative="1" as="geometry">
            <mxPoint x="473" y="190" as="sourcePoint" />
            <mxPoint x="730" y="270" as="targetPoint" />
          </mxGeometry>
        </mxCell>
        <mxCell id="1VLkWHA8B-hFSgV8j78G-68" value="" style="shape=flexArrow;endArrow=classic;html=1;" edge="1" parent="1">
          <mxGeometry width="50" height="50" relative="1" as="geometry">
            <mxPoint x="479.9999999999998" y="390" as="sourcePoint" />
            <mxPoint x="730" y="350" as="targetPoint" />
          </mxGeometry>
        </mxCell>
        <mxCell id="1VLkWHA8B-hFSgV8j78G-69" value="" style="shape=flexArrow;endArrow=classic;html=1;" edge="1" parent="1">
          <mxGeometry width="50" height="50" relative="1" as="geometry">
            <mxPoint x="479.9999999999998" y="510" as="sourcePoint" />
            <mxPoint x="730" y="400" as="targetPoint" />
          </mxGeometry>
        </mxCell>
      </root>
    </mxGraphModel>
  </diagram>
</mxfile>
